<svg width="32" height="32" viewBox="0 0 32 32" fill="none" xmlns="http://www.w3.org/2000/svg">
<g clip-path="url(#clip0_731_8706)">
<path d="M10.9091 1.45455C10.9091 0.945455 11.0182 0.436364 11.2 0H7.27273C3.27273 0 0 3.27273 0 7.27273V14.9091H5.81818V7.27273C5.81818 6.47273 6.47273 5.81818 7.27273 5.81818H11.2C11.0182 5.38182 10.9091 4.87273 10.9091 4.36364V1.45455ZM24.7273 0H20.8C20.9818 0.436364 21.0909 0.945455 21.0909 1.45455V4.36364C21.0909 4.87273 20.9818 5.38182 20.8 5.81818H24.7273C25.5273 5.81818 26.1818 6.47273 26.1818 7.27273V14.9091H32V7.27273C32 3.27273 28.7273 0 24.7273 0ZM17.4545 5.81818H14.5455C13.7455 5.81818 13.0909 5.16364 13.0909 4.36364V1.45455C13.0909 0.654545 13.7455 0 14.5455 0H17.4545C18.2545 0 18.9091 0.654545 18.9091 1.45455V4.36364C18.9091 5.16364 18.2545 5.81818 17.4545 5.81818Z" fill="#33485D"/>
<path d="M26.1818 24.7273V17.0909H32V24.7273C32 28.7273 28.7273 32 24.7273 32H20.7636C20.9818 31.5273 21.0909 31.0182 21.0909 30.5091V27.6C21.0909 27.0909 20.9818 26.6182 20.8 26.1819H24.7273C25.5273 26.1819 26.1818 25.5273 26.1818 24.7273Z" fill="#155EEF"/>
<path d="M11.2 26.1819C11.0182 26.6182 10.9091 27.0909 10.9091 27.6V30.5091C10.9091 31.0546 11.0182 31.5637 11.2364 32H7.27273C3.27273 32 0 28.7273 0 24.7273V17.0909H5.81818V24.7273C5.81818 25.5273 6.47273 26.1819 7.27273 26.1819H11.2Z" fill="#155EEF"/>
<path d="M14.5455 32H17.4545C18.2545 32 18.9091 31.3455 18.9091 30.5455V27.6364C18.9091 26.8364 18.2545 26.1819 17.4545 26.1819H14.5455C13.7455 26.1819 13.0909 26.8364 13.0909 27.6364V30.5455C13.0909 31.3455 13.7455 32 14.5455 32Z" fill="#155EEF"/>
</g>
<defs>
<clipPath id="clip0_731_8706">
<rect width="32" height="32" fill="white"/>
</clipPath>
</defs>
</svg>
