<svg width="32" height="32" viewBox="0 0 32 32" fill="none" xmlns="http://www.w3.org/2000/svg">
<circle cx="16" cy="16" r="16" fill="#EEF2F6"/>
<path d="M21.0967 10.9114C20.7812 10.5959 20.2715 10.5959 19.956 10.9114L16 14.8593L12.0439 10.9033C11.7284 10.5878 11.2188 10.5878 10.9033 10.9033C10.5877 11.2188 10.5877 11.7285 10.9033 12.044L14.8593 16L10.9033 19.956C10.5877 20.2715 10.5877 20.7812 10.9033 21.0967C11.2188 21.4122 11.7284 21.4122 12.0439 21.0967L16 17.1407L19.956 21.0967C20.2715 21.4122 20.7812 21.4122 21.0967 21.0967C21.4122 20.7812 21.4122 20.2715 21.0967 19.956L17.1406 16L21.0967 12.044C21.4041 11.7366 21.4041 11.2188 21.0967 10.9114V10.9114Z" fill="#121926"/>
</svg>
