<svg width="24" height="24" viewBox="0 0 24 24" fill="none" xmlns="http://www.w3.org/2000/svg">
<g clip-path="url(#clip0_23_13587)">
<path d="M0.624999 11.475H8.54171C8.94194 11.475 9.26671 11.1502 9.26671 10.75C9.26671 10.3498 8.94194 10.025 8.54171 10.025H0.624999C0.22477 10.025 -0.1 10.3498 -0.1 10.75C-0.1 11.1502 0.22477 11.475 0.624999 11.475Z" fill="#CDD5DF" stroke="#CDD5DF" stroke-width="0.2"/>
<path d="M7.51695 10.7492L4.90427 13.3618L4.90426 13.3618C4.62109 13.645 4.62109 14.104 4.90417 14.3873C5.04554 14.5294 5.23131 14.6 5.41672 14.6C5.60205 14.6 5.78786 14.5293 5.92989 14.3875L5.92993 14.3874L9.05493 11.2624L9.05495 11.2624C9.3381 10.9791 9.33813 10.52 9.05493 10.2368L5.92993 7.11178L5.92991 7.11176C5.64658 6.82861 5.18747 6.82858 4.90426 7.11178C4.62106 7.39499 4.62109 7.8541 4.90424 8.13743L4.90428 8.13746L7.51695 10.7492Z" fill="#CDD5DF" stroke="#CDD5DF" stroke-width="0.2"/>
<path d="M12.7634 3.65586L12.7634 3.65585L12.7622 3.65626C12.0472 3.90439 11.5667 4.57803 11.5667 5.33322V20.3332C11.5667 21.3076 12.3589 22.0999 13.3333 22.0999C13.5228 22.0999 13.7018 22.0733 13.8938 22.0138L13.8938 22.0138L13.8958 22.0131L18.9042 20.3431L18.9055 20.3426C19.6195 20.0937 20.1 19.4211 20.1 18.6666V3.66665C20.1 2.50155 18.9564 1.62302 17.7724 1.98596L17.7724 1.98593L17.7701 1.9867L12.7634 3.65586ZM13.2307 5.0287L18.2145 3.36691C18.2534 3.3552 18.289 3.34994 18.3333 3.34994C18.508 3.34994 18.65 3.49255 18.65 3.66665V18.6666C18.65 18.8013 18.5581 18.9282 18.436 18.9712C18.4358 18.9712 18.4356 18.9713 18.4354 18.9714L13.4526 20.6328C13.4523 20.6329 13.452 20.633 13.4518 20.6331C13.3555 20.663 13.2457 20.6429 13.1588 20.5846C13.0725 20.5267 13.0167 20.4367 13.0167 20.3332V5.33322C13.0167 5.19828 13.108 5.07158 13.2307 5.0287Z" fill="#CDD5DF" stroke="#CDD5DF" stroke-width="0.2"/>
<path d="M6.56681 5.54171C6.56681 5.94194 6.89158 6.26671 7.29181 6.26671C7.69204 6.26671 8.01681 5.94194 8.01681 5.54171V4.29172C8.01681 3.77274 8.43943 3.35 8.95837 3.35H18.3334C18.7336 3.35 19.0584 3.02523 19.0584 2.625C19.0584 2.22477 18.7336 1.9 18.3334 1.9H8.95837C7.63895 1.9 6.56681 2.97231 6.56681 4.29172V5.54171Z" fill="#CDD5DF" stroke="#CDD5DF" stroke-width="0.2"/>
<path d="M8.95837 19.5999H12.2918C12.692 19.5999 13.0168 19.2751 13.0168 18.8749C13.0168 18.4747 12.692 18.1499 12.2918 18.1499H8.95837C8.43943 18.1499 8.01681 17.7272 8.01681 17.2082V15.9582C8.01681 15.558 7.69204 15.2332 7.29181 15.2332C6.89158 15.2332 6.56681 15.558 6.56681 15.9582V17.2082C6.56681 18.5276 7.63895 19.5999 8.95837 19.5999Z" fill="#CDD5DF" stroke="#CDD5DF" stroke-width="0.2"/>
</g>
<defs>
<clipPath id="clip0_23_13587">
<rect width="24" height="24" fill="white"/>
</clipPath>
</defs>
</svg>
